<?xml version="1.0" standalone="no"?><!-- Generator: Gravit.io --><svg xmlns="http://www.w3.org/2000/svg" xmlns:xlink="http://www.w3.org/1999/xlink" style="isolation:isolate" viewBox="0 0 350 200" width="350px" height="200px"><defs><clipPath id="_clipPath_XdytdEE7uju09vvf5kOqwlvt9gdRAtsH"><rect width="350" height="200"/></clipPath></defs><g clip-path="url(#_clipPath_XdytdEE7uju09vvf5kOqwlvt9gdRAtsH)"><g><path d=" M 68.195 157.609 L 52.277 157.609 L 52.277 129.055 L 55.598 129.055 L 55.598 154.602 L 68.195 154.602 L 68.195 157.609 Z " fill="rgb(23,19,15)"/><path d=" M 94.426 157.609 L 90.988 157.609 L 87.434 148.527 L 75.988 148.527 L 72.473 157.609 L 69.113 157.609 L 80.402 128.938 L 83.195 128.938 L 94.426 157.609 Z " fill="rgb(0,0,0)"/><path d=" M 77.16 145.539 L 86.398 145.539 L 83.078 136.691 L 83.078 136.691 Q 82.434 135.012 81.75 132.57 L 81.75 132.57 L 81.75 132.57 Q 81.32 134.445 80.52 136.691 L 80.52 136.691 L 77.16 145.539 Z " fill="rgb(255,255,255)"/><path d=" M 116.594 129.055 L 119.914 129.055 L 119.914 147.531 L 119.914 147.531 Q 119.914 152.414 116.965 155.207 L 116.965 155.207 L 116.965 155.207 Q 114.016 158 108.859 158 L 108.859 158 L 108.859 158 Q 103.703 158 100.881 155.188 L 100.881 155.188 L 100.881 155.188 Q 98.059 152.375 98.059 147.453 L 98.059 147.453 L 98.059 129.055 L 101.379 129.055 L 101.379 147.688 L 101.379 147.688 Q 101.379 151.262 103.332 153.176 L 103.332 153.176 L 103.332 153.176 Q 105.285 155.09 109.074 155.09 L 109.074 155.09 L 109.074 155.09 Q 112.687 155.09 114.641 153.166 L 114.641 153.166 L 114.641 153.166 Q 116.594 151.242 116.594 147.648 L 116.594 147.648 L 116.594 129.055 Z " fill="rgb(0,0,0)"/><path d=" M 149.777 129.055 L 149.777 157.609 L 145.988 157.609 L 130.383 133.645 L 130.227 133.645 L 130.227 133.645 Q 130.539 137.863 130.539 141.379 L 130.539 141.379 L 130.539 157.609 L 127.473 157.609 L 127.473 129.055 L 131.223 129.055 L 146.789 152.922 L 146.945 152.922 L 146.945 152.922 Q 146.906 152.395 146.77 149.533 L 146.77 149.533 L 146.77 149.533 Q 146.633 146.672 146.672 145.441 L 146.672 145.441 L 146.672 129.055 L 149.777 129.055 Z " fill="rgb(0,0,0)"/><path d=" M 169.855 131.613 L 169.855 131.613 L 169.855 131.613 Q 165.148 131.613 162.424 134.748 L 162.424 134.748 L 162.424 134.748 Q 159.699 137.883 159.699 143.332 L 159.699 143.332 L 159.699 143.332 Q 159.699 148.938 162.326 151.994 L 162.326 151.994 L 162.326 151.994 Q 164.953 155.051 169.816 155.051 L 169.816 155.051 L 169.816 155.051 Q 172.805 155.051 176.633 153.977 L 176.633 153.977 L 176.633 156.887 L 176.633 156.887 Q 173.664 158 169.309 158 L 169.309 158 L 169.309 158 Q 163 158 159.572 154.172 L 159.572 154.172 L 159.572 154.172 Q 156.145 150.344 156.145 143.293 L 156.145 143.293 L 156.145 143.293 Q 156.145 138.879 157.795 135.559 L 157.795 135.559 L 157.795 135.559 Q 159.445 132.238 162.561 130.441 L 162.561 130.441 L 162.561 130.441 Q 165.676 128.645 169.895 128.645 L 169.895 128.645 L 169.895 128.645 Q 174.387 128.645 177.746 130.285 L 177.746 130.285 L 176.34 133.137 L 176.34 133.137 Q 173.098 131.613 169.855 131.613 Z " fill="rgb(0,0,0)"/><path d=" M 204.543 129.055 L 204.543 157.609 L 201.223 157.609 L 201.223 144.172 L 186.184 144.172 L 186.184 157.609 L 182.863 157.609 L 182.863 129.055 L 186.184 129.055 L 186.184 141.203 L 201.223 141.203 L 201.223 129.055 L 204.543 129.055 Z " fill="rgb(0,0,0)"/><path d=" M 235.168 143.059 L 235.168 143.059 L 235.168 143.059 Q 235.168 150.129 231.33 153.869 L 231.33 153.869 L 231.33 153.869 Q 227.492 157.609 220.285 157.609 L 220.285 157.609 L 212.375 157.609 L 212.375 129.055 L 221.125 129.055 L 221.125 129.055 Q 227.785 129.055 231.477 132.746 L 231.477 132.746 L 231.477 132.746 Q 235.168 136.438 235.168 143.059 Z " fill="rgb(0,0,0)"/><path d=" M 231.652 143.176 L 231.652 143.176 L 231.652 143.176 Q 231.652 137.59 228.85 134.758 L 228.85 134.758 L 228.85 134.758 Q 226.047 131.926 220.52 131.926 L 220.52 131.926 L 215.695 131.926 L 215.695 154.738 L 219.738 154.738 L 219.738 154.738 Q 225.676 154.738 228.664 151.818 L 228.664 151.818 L 228.664 151.818 Q 231.652 148.898 231.652 143.176 Z " fill="rgb(255,255,255)"/><path d=" M 108.986 149.055 L 108.986 149.055 C 107.882 149.055 106.986 148.159 106.986 147.055 L 106.986 129.055 L 110.986 129.055 L 110.986 147.055 C 110.986 148.159 110.09 149.055 108.986 149.055 Z " fill="rgb(0,0,0)"/><path d=" M 261.871 131.223 L 261.871 131.223 L 261.871 131.223 Q 257.164 131.223 254.439 134.357 L 254.439 134.357 L 254.439 134.357 Q 251.715 137.492 251.715 142.941 L 251.715 142.941 L 251.715 142.941 Q 251.715 148.547 254.342 151.604 L 254.342 151.604 L 254.342 151.604 Q 256.969 154.66 261.832 154.66 L 261.832 154.66 L 261.832 154.66 Q 264.82 154.66 268.648 153.586 L 268.648 153.586 L 268.648 156.496 L 268.648 156.496 Q 265.68 157.609 261.324 157.609 L 261.324 157.609 L 261.324 157.609 Q 255.016 157.609 251.588 153.781 L 251.588 153.781 L 251.588 153.781 Q 248.16 149.953 248.16 142.902 L 248.16 142.902 L 248.16 142.902 Q 248.16 138.488 249.811 135.168 L 249.811 135.168 L 249.811 135.168 Q 251.461 131.848 254.576 130.051 L 254.576 130.051 L 254.576 130.051 Q 257.691 128.254 261.91 128.254 L 261.91 128.254 L 261.91 128.254 Q 264.904 128.05 268.355 129.254 L 268.355 129.254 L 268.355 132.746 L 268.355 132.746 Q 265.113 131.223 261.871 131.223 Z " fill="rgb(18,8,8)"/><path d=" M 290.559 157.609 L 274.641 157.609 L 274.641 129.055 L 277.961 129.055 L 277.961 154.602 L 290.559 154.602 L 290.559 157.609 Z " fill="rgb(0,0,0)"/><path d=" M 298.723 157.609 L 295.402 157.609 L 295.402 129.055 L 298.723 129.055 L 298.723 157.609 Z " fill="rgb(0,0,0)"/></g><g><linearGradient id="_lgradient_0" x1="0.22070943557921432" y1="0.23793543012871426" x2="0.9979961458995836" y2="0.9973876461396305" gradientTransform="matrix(90,0,0,90,127,19)" gradientUnits="userSpaceOnUse"><stop offset="0%" stop-opacity="1" style="stop-color:rgb(204,71,71)"/><stop offset="50.43478260869565%" stop-opacity="1" style="stop-color:rgb(249,221,177)"/><stop offset="100%" stop-opacity="1" style="stop-color:rgb(162,240,157)"/></linearGradient><path d=" M 132 19 L 212 19 C 214.76 19 217 21.24 217 24 L 217 109 L 132 109 C 129.24 109 127 106.76 127 104 L 127 24 C 127 21.24 129.24 19 132 19 Z " fill="url(#_lgradient_0)"/><g opacity="0.9"><path d=" M 194.823 106.5 L 214.51 106.5 L 214.51 23.5 C 214.51 22.396 213.614 21.5 212.51 21.5 L 131.51 21.5 L 131.51 21.5 C 130.406 21.5 129.51 22.396 129.51 23.5 L 129.51 104.5 C 129.51 105.604 130.406 106.5 131.51 106.5 L 189 106.5 L 189 106.5 C 189.111 104.477 193.556 90.122 193 84 C 192.677 80.443 187.228 81.897 186.913 81.897 L 186.913 81.897 L 186.913 81.897 Q 179.816 81.897 175.96 77.59 L 175.96 77.59 L 175.96 77.59 Q 172.104 73.283 172.104 65.351 L 172.104 65.351 L 172.104 65.351 Q 172.104 60.385 173.96 56.65 L 173.96 56.65 L 173.96 56.65 Q 175.817 52.915 179.322 50.893 L 179.322 50.893 L 179.322 50.893 Q 182.826 48.872 187.572 48.872 L 187.572 48.872 L 187.572 48.872 Q 192.626 48.872 196.405 50.718 L 196.405 50.718 L 194.823 53.926 L 194.823 53.926 Q 191.176 52.212 187.528 52.212 L 187.528 52.212 L 187.528 52.212 Q 182.233 52.212 179.168 55.738 L 179.168 55.738 L 179.168 55.738 Q 176.103 59.265 176.103 65.395 L 176.103 65.395 L 176.103 65.395 Q 176.103 71.701 179.058 75.14 L 179.058 75.14 L 179.058 75.14 Q 182.013 78.579 187.484 78.579 L 187.484 78.579 L 187.484 78.579 Q 190.846 78.579 195.153 77.37 L 195.153 77.37 Q 195.49 102.343 194.823 106.5 Z  M 168.324 81.457 L 150.417 81.457 L 150.417 49.333 L 154.152 49.333 L 154.152 78.073 L 168.324 78.073 L 168.324 81.457 L 168.324 81.457 Z " fill-rule="evenodd" fill="rgb(0,0,0)"/></g></g><text transform="matrix(1,0,0,1,122.721,171.1)" style="font-family:'Poppins';font-weight:100;font-size:14px;font-style:italic;fill:#bfbebe;stroke:none;">launchd cli tool</text></g></svg>